# xmcd
# 
# Track frame offsets:
#     150
#     20000
#     36890
#     58267
#     77537
#     98810
#     122380
#     143330
#     158215
#     184852
#     213042
#     332550
# 
# Disc length: 4440
# 
# Revision: 11
# Processed by: cddbd v1.5.2PL0 Copyright (c) Steve Scherf et al.
# Submitted via: fre:ac v1.0.17
# 
DISCID=9511560c
DTITLE=L'Arc～en～Ciel - SMILE
DYEAR=2004
DGENRE=Rock
TTITLE0=接吻
TTITLE1=READY STEADY GO
TTITLE2=Lover Boy
TTITLE3=Feeling Fine
TTITLE4=Time goes on
TTITLE5=Coming Closer
TTITLE6=永遠
TTITLE7=REVELATION
TTITLE8=瞳の住人
TTITLE9=Spirit dreams inside
TTITLE10=data
TTITLE11=data
EXTD=
EXTT0=
EXTT1=
EXTT2=
EXTT3=
EXTT4=
EXTT5=
EXTT6=
EXTT7=
EXTT8=
EXTT9=
EXTT10=
EXTT11=
PLAYORDER=
